<!-- Created with Inkscape (http://www.inkscape.org/) -->
<svg xmlns:rdf="http://www.w3.org/1999/02/22-rdf-syntax-ns#" xmlns="http://www.w3.org/2000/svg" version="1.1" xmlns:cc="http://creativecommons.org/ns#" xmlns:dc="http://purl.org/dc/elements/1.1/" viewBox="0 0 189.099 56.7627">
 <defs></defs>
 <metadata>
  <rdf:RDF>
   <cc:Work rdf:about="">
    <dc:format>image/svg+xml</dc:format>
    <dc:type rdf:resource="http://purl.org/dc/dcmitype/StillImage"/>
    <dc:title/>
   </cc:Work>
  </rdf:RDF>
 </metadata>
 <g fill-rule="nonzero" transform="translate(-36.875,-232.55226)">
  <path fill="#1e1c1c" d="m204.969,240.062c-1.40625,0.0488-3.15235,0.0811-4.96875,0.28125-1.83106,0.20019-3.625,0.51172-5.34375,1-1.66504,0.46875-3.23535,1.11133-4.65625,2-2.77832,1.74805-4.34081,5.16211-2.8125,7.4375,0.33692,0.49805,1.31054,1.26953,1.90625,1.5625,0.66406,0.32226,1.46778,0.6211,2.3125,0.875,3.12989,0.92774,6.81348,1.29883,8.3125,2.1875,1.35743,0.80566,1.17285,2.15039-0.53125,3-2.06055,1.03028-6.21289,1.02442-9.875,0.53125-1.792-0.24414-4.875-1.21875-4.875-1.21875l-2.53125,5.03125s5.79395,1.20508,12,1c2.36329-0.0781,6.06445-0.19043,9.375-1.25,2.42676-0.77149,4.22167-1.77148,5.59375-3.1875,1.25976-1.29882,1.92579-2.65821,2.0625-3.9375,0.16602-1.5625-0.24804-2.39648-1.15625-3.34375-2.13379-2.21191-8.8252-2.70703-11.75-3.78125-0.26368-0.0977-1.22266-0.53809-0.96875-1.5,0.22461-0.84961,1.46582-1.96289,5.875-2.03125,5.94239-0.0928,8.71875,1.125,8.71875,1.125l2.374-4.841s-1.60254-0.47753-4.15625-0.6875c-1.50879-0.18066-3.24609-0.30859-4.90625-0.25zm-155.375,0.25-7.71875,23.0312,9.46875,0,3.28125-9.75,11.4062,0-3.28125,9.75,4.6875,0,6.875-6.1875,5.625-16.8438-9.46875,0-2.96875,8.84375-11.375,0,2.96875-8.84375-9.5,0zm64.5312,0-7.8125,23.0312,9.5625,0,6.25-18.5938c2.1289-0.01,4.73535-0.003,5.53125,0.0312,1.40625,0.0537,2.45897,0.15918,2.9375,0.75,0.47851,0.59082,0.52344,1.93359-0.84375,2.96875-2.14355,1.62109-7.40625,1.40625-7.40625,1.40625l5.625,13.4375h9.9375,9.53125l6.25-18.5938c2.1289-0.01,4.73535,0.002,5.53125,0.0312,1.40625,0.0586,2.45899,0.15918,2.9375,0.75,0.4834,0.59082,0.55469,1.93359-0.8125,2.96875-2.14356,1.62109-7.4375,1.40625-7.4375,1.40625l5.625,13.4375h10.25s-2.45704-3.45996-3.6875-5.75c-1.14257-2.11426-2.71875-5.53125-2.71875-5.53125s4.68945-0.62891,7.375-3.34375c1.20605-1.23047,2.55176-3.83984,1.0625-5.8125-1.55761-2.06543-6.0293-2.59375-10.0625-2.59375h-16.0625l-7.8125,23c-0.0381-0.0618-2.11958-3.44943-3.34375-5.71875-1.14259-2.11426-2.71875-5.53125-2.71875-5.53125s4.68946-0.65527,7.375-3.375c1.20606-1.22558,2.5254-3.80371,1.03125-5.78125-1.55761-2.06055-5.99805-2.59375-10.0312-2.59375h-16.0625zm55.6562,23.0312,9.3125,0,8.03125-23.0312-10.3438,0-7,23.0312z"/>
  <path d="m67.4296,263.338,6.875-6.19629" fill="#eb1c26"/>
  <path d="m44.4999,284.315c0.668938-0.81055,1.25976-1.4502,1.78222-1.91406l49.7559-44.8486,10.2881,25.7861h-9.4873l-6.92871-7.41211h4.1211l-2.14844-5.89356-45.1221,32.8272c-0.66895,0.47852-1.52832,1.03027-2.26074,1.45508" fill="#eb1c26"/>
  <path fill="#1e1c1c" d="m218.323,240.35c0.44921,0,0.88379,0.1123,1.30859,0.3418,0.42481,0.22949,0.75684,0.55664,0.99121,0.98144,0.23926,0.42481,0.35156,0.86914,0.35156,1.32813,0,0.45898-0.11225,0.89844-0.34667,1.31836-0.23438,0.41992-0.56153,0.75195-0.98145,0.98144-0.41991,0.23438-0.86425,0.35157-1.32324,0.35157s-0.89844-0.11719-1.32324-0.35157c-0.41992-0.22949-0.74707-0.56152-0.98145-0.98144-0.23437-0.41992-0.35156-0.85938-0.35156-1.31836,0-0.45899,0.12213-0.90332,0.36133-1.32813,0.23437-0.4248,0.56641-0.75195,0.99121-0.98144s0.85937-0.3418,1.30371-0.3418m0,0.43457c-0.3711,0-0.7373,0.0977-1.08886,0.28809-0.35156,0.19043-0.62989,0.46386-0.83009,0.82031-0.20019,0.35644-0.29785,0.72266-0.29785,1.1084s0.0976,0.75195,0.29298,1.10351c0.19531,0.34668,0.46875,0.62012,0.82518,0.81543,0.35157,0.19532,0.71778,0.29297,1.09864,0.29297,0.38574,0,0.75195-0.0977,1.10351-0.29297,0.35157-0.19531,0.625-0.46875,0.82032-0.81543,0.19531-0.35156,0.29297-0.71777,0.29297-1.10351s-0.0976-0.75196-0.29785-1.1084c-0.2002-0.35645-0.47364-0.62988-0.83009-0.82031-0.35156-0.19043-0.71777-0.28809-1.08886-0.28809zm-1.16699,3.68164,0-2.85644,0.9912,0c0.33693,0,0.58107,0.0244,0.73243,0.0781,0.15137,0.0537,0.27344,0.14649,0.36132,0.27832,0.0927,0.13184,0.13673,0.27344,0.13673,0.41992,0,0.20996-0.0733,0.39063-0.22461,0.54688-0.15625,0.15625-0.35644,0.24414-0.60547,0.26367,0.1025,0.0391,0.18554,0.0928,0.24414,0.14648,0.11225,0.1123,0.2539,0.30274,0.4248,0.56641l0.34669,0.55664h-0.55665l-0.2539-0.44922c-0.2002-0.35156-0.36621-0.57129-0.48829-0.66406-0.0879-0.0635-0.20995-0.0976-0.37109-0.0976h-0.27343v1.21094zm0.46387-1.60644,0.57128,0c0.27344,0,0.46387-0.0439,0.56642-0.12208,0.0976-0.0781,0.14647-0.18555,0.14647-0.31738,0-0.083-0.0244-0.15625-0.0732-0.22461-0.0489-0.0684-0.11225-0.11719-0.2002-0.15137-0.083-0.0342-0.24414-0.0488-0.47362-0.0488h-0.53712v0.86426"/>
 </g>
</svg>
