<?xml version="1.0" encoding="UTF-8" ?>
<!DOCTYPE svg PUBLIC "-//W3C//DTD SVG 1.1//EN" "http://www.w3.org/Graphics/SVG/1.1/DTD/svg11.dtd">
<svg width="502pt" height="359pt" viewBox="0 0 502 359" version="1.1" xmlns="http://www.w3.org/2000/svg">
<path fill="#ffffff" d=" M 0.00 0.00 L 502.00 0.00 L 502.00 359.00 L 0.00 359.00 L 0.00 0.00 Z" />
<path fill="#ee3e30" d=" M 70.97 30.80 C 92.27 14.40 119.03 5.15 145.94 5.13 C 172.86 4.68 199.82 13.42 221.43 29.46 C 250.21 50.45 269.13 84.23 271.96 119.74 C 270.58 119.86 269.21 119.98 267.84 120.09 C 265.32 88.91 250.04 59.04 226.29 38.71 C 206.79 21.74 181.71 11.26 155.92 9.50 C 122.30 6.79 87.83 19.22 63.59 42.65 C 45.24 59.97 32.57 83.20 27.99 108.02 C 22.48 136.62 27.94 167.11 42.87 192.09 C 55.12 212.92 73.87 229.65 95.61 240.11 C 98.06 230.95 100.56 221.80 103.02 212.63 C 84.45 202.67 69.29 186.41 61.00 167.01 C 51.78 145.83 50.89 121.20 58.38 99.36 C 64.55 81.23 76.48 65.14 91.98 53.91 C 107.84 42.40 127.38 35.90 147.01 36.13 C 168.08 35.87 189.10 43.28 205.52 56.47 C 224.68 71.58 237.53 94.49 240.16 118.77 C 238.83 118.91 237.51 119.06 236.19 119.20 C 233.49 97.33 222.59 76.55 205.86 62.18 C 192.74 50.74 176.24 43.20 158.97 40.94 C 139.28 38.17 118.72 42.47 101.61 52.57 C 85.91 61.85 73.09 75.99 65.55 92.62 C 55.93 113.37 54.84 137.90 62.51 159.44 C 69.66 180.21 84.90 197.92 104.12 208.46 C 106.13 201.17 108.12 193.88 110.04 186.57 C 97.12 178.24 86.81 165.65 82.02 150.96 C 76.88 135.92 77.31 119.07 83.19 104.31 C 90.12 86.68 104.84 72.24 122.68 65.83 C 138.73 59.89 157.06 60.39 172.77 67.18 C 193.93 76.09 209.57 96.47 212.94 119.16 C 211.58 119.38 210.21 119.61 208.85 119.84 C 206.52 105.30 199.22 91.56 188.12 81.83 C 176.16 71.10 159.98 65.22 143.92 65.84 C 128.07 66.34 112.46 73.06 101.32 84.36 C 87.77 97.60 80.81 117.19 82.91 136.01 C 84.76 154.71 95.60 172.03 111.21 182.38 C 112.56 177.32 113.98 172.27 115.27 167.19 C 106.62 159.70 100.37 149.42 98.47 138.07 C 95.90 124.02 99.69 108.88 108.88 97.90 C 118.25 86.36 133.09 79.38 147.99 79.96 C 164.66 79.88 180.84 89.35 189.35 103.62 C 192.42 108.49 194.34 113.98 195.62 119.57 C 194.28 119.81 192.94 120.05 191.60 120.29 C 188.64 106.33 178.97 94.02 165.96 88.10 C 156.54 83.79 145.63 82.70 135.61 85.47 C 118.97 89.69 105.51 104.20 102.55 121.11 C 99.50 136.26 105.35 152.30 116.49 162.81 C 117.86 157.70 119.30 152.60 120.64 147.48 C 121.53 145.16 119.93 143.02 119.18 140.91 C 114.11 128.79 118.33 113.60 128.89 105.79 C 138.30 98.45 152.16 97.60 162.43 103.64 C 170.76 108.28 176.17 117.09 177.51 126.43 C 176.17 126.61 174.84 126.79 173.50 126.97 C 172.29 120.42 169.27 114.04 163.99 109.81 C 155.00 101.98 140.60 101.77 131.32 109.22 C 122.36 116.00 118.82 128.60 122.67 139.13 C 123.10 137.95 123.52 136.77 123.94 135.60 C 129.37 137.04 134.79 138.50 140.21 139.96 C 142.44 140.63 144.68 141.22 146.92 141.83 C 146.34 143.93 145.77 146.03 145.18 148.13 C 127.66 212.25 110.58 276.48 93.04 340.59 L 92.90 341.06 C 85.31 338.83 77.62 336.95 70.01 334.76 C 78.17 304.54 86.40 274.34 94.48 244.10 C 66.32 231.11 43.30 207.34 31.46 178.66 C 22.59 157.74 20.05 134.40 23.16 111.96 C 27.68 80.03 45.31 50.29 70.97 30.80 Z" />
<path fill="#231f20" d=" M 137.64 121.63 C 141.93 116.44 150.62 115.88 155.48 120.59 C 160.34 124.78 160.90 132.89 156.71 137.74 C 154.81 140.25 151.75 141.37 148.88 142.34 C 149.45 144.46 149.99 146.58 150.52 148.71 C 148.74 148.52 146.96 148.32 145.18 148.13 C 145.77 146.03 146.34 143.93 146.92 141.83 C 144.68 141.22 142.44 140.63 140.21 139.96 C 133.89 136.46 132.92 126.85 137.64 121.63 Z" />
<path fill="#ffffff" d=" M 144.46 121.68 C 150.90 119.20 157.84 126.64 155.03 132.91 C 152.94 138.98 143.72 140.22 140.23 134.78 C 136.61 130.41 139.19 123.28 144.46 121.68 Z" />
<path fill="#231f20" d=" M 189.12 123.00 C 210.45 123.00 231.78 123.00 253.11 123.00 C 258.58 128.60 263.94 134.32 269.47 139.87 C 269.48 172.24 269.48 204.62 269.47 237.00 C 245.29 237.01 221.11 236.99 196.92 237.01 C 189.86 237.18 183.20 233.46 178.86 228.03 C 168.39 214.99 165.83 196.94 169.46 180.91 C 171.46 172.20 177.22 164.13 185.56 160.54 C 201.79 153.95 219.69 156.54 236.75 156.00 C 236.75 150.75 236.75 145.49 236.76 140.24 C 223.66 140.25 210.56 140.25 197.46 140.24 C 197.47 142.83 197.48 145.41 197.48 148.00 C 188.99 148.00 180.50 148.01 172.01 147.99 C 177.72 139.67 183.40 131.32 189.12 123.00 Z" />
<path fill="#231f20" d=" M 283.75 123.00 C 294.58 123.00 305.42 123.00 316.25 123.00 C 316.22 128.64 316.31 134.28 316.19 139.92 C 320.39 129.33 331.87 122.93 342.98 122.99 C 350.15 123.00 357.31 123.00 364.47 123.00 C 364.47 128.75 364.47 134.50 364.48 140.25 C 356.37 140.71 347.83 138.88 340.13 142.20 C 333.66 144.89 327.60 148.65 322.45 153.41 C 319.08 156.70 315.93 160.96 316.24 165.91 C 316.26 189.61 316.24 213.30 316.25 237.00 C 305.41 237.00 294.58 237.00 283.75 237.00 C 283.75 199.00 283.75 161.00 283.75 123.00 Z" />
<path fill="#231f20" d=" M 376.30 145.94 C 375.94 133.35 387.42 122.11 400.05 122.98 C 412.04 123.03 424.04 122.97 436.04 123.01 C 443.83 123.18 452.43 126.76 455.73 134.28 C 458.60 141.16 457.11 148.77 457.47 156.00 C 451.65 156.00 445.82 156.00 440.00 156.00 C 440.00 150.75 440.00 145.50 440.00 140.25 C 429.67 140.25 419.33 140.25 409.00 140.25 C 409.00 166.83 409.00 193.41 409.00 220.00 C 419.33 220.00 429.67 220.00 440.00 220.00 C 440.00 214.67 440.00 209.33 440.00 204.00 C 445.82 204.00 451.65 204.00 457.47 204.00 C 457.08 211.09 458.81 218.79 455.19 225.30 C 450.85 232.52 442.46 237.03 434.07 237.01 C 422.38 237.00 410.69 237.00 399.00 237.01 C 392.23 237.02 385.19 234.56 380.75 229.27 C 377.66 225.64 376.23 220.81 376.29 216.09 C 376.31 192.71 376.30 169.32 376.30 145.94 Z" />
<path fill="#ffffff" d=" M 129.81 141.22 C 134.69 142.49 139.71 143.46 144.31 145.61 C 143.51 148.00 143.13 150.61 141.72 152.75 C 140.68 153.01 139.66 152.56 138.64 152.43 C 140.62 151.45 141.52 149.52 142.16 147.55 C 141.52 147.40 140.24 147.11 139.60 146.97 C 138.90 148.76 138.12 150.52 137.24 152.23 C 134.14 151.37 131.05 150.50 127.94 149.68 C 128.24 148.71 128.54 147.74 128.85 146.77 C 131.68 147.54 134.51 148.33 137.35 149.12 C 137.39 148.48 137.46 147.20 137.50 146.56 C 135.06 145.52 132.40 145.14 129.94 144.13 C 129.91 143.40 129.85 141.95 129.81 141.22 Z" />
<path fill="#050607" d=" M 93.04 340.59 C 110.58 276.48 127.66 212.25 145.18 148.13 C 146.96 148.32 148.74 148.52 150.52 148.71 L 150.64 148.72 C 157.03 175.20 164.00 201.55 170.75 227.94 C 179.75 262.92 188.73 297.90 197.76 332.87 C 193.26 334.69 188.70 336.36 184.17 338.08 C 182.32 331.10 180.64 324.08 178.87 317.09 C 174.84 318.87 170.81 320.69 166.76 322.43 C 167.94 331.05 168.56 339.74 169.75 348.36 C 166.82 349.23 163.98 350.47 160.95 350.98 C 155.98 350.32 151.11 349.06 146.19 348.07 C 146.19 338.66 146.19 329.26 146.19 319.86 C 135.84 319.17 125.47 318.63 115.12 317.90 C 114.06 325.77 112.73 333.60 111.53 341.44 C 105.37 341.04 99.21 340.78 93.04 340.59 Z" />
<path fill="#ffffff" d=" M 124.41 152.03 C 125.79 151.78 127.16 151.52 128.53 151.23 C 129.80 153.69 132.89 153.58 135.17 154.41 C 135.75 153.97 136.90 153.09 137.48 152.66 C 137.11 154.26 136.71 155.86 136.27 157.46 C 133.63 156.97 131.01 156.37 128.41 155.68 C 127.99 156.17 127.14 157.13 126.72 157.61 C 126.61 157.01 126.38 155.81 126.27 155.21 C 125.64 154.98 124.39 154.51 123.76 154.28 C 123.92 153.72 124.25 152.59 124.41 152.03 Z" />
<path fill="#ffffff" d=" M 123.08 156.86 C 127.16 158.48 131.54 159.07 135.74 160.30 C 135.52 161.03 135.07 162.50 134.85 163.24 C 132.33 162.56 129.28 160.97 127.02 163.11 L 126.92 162.71 C 126.50 163.76 125.66 165.84 125.24 166.89 C 127.09 165.84 128.84 164.65 130.54 163.37 C 131.63 163.93 133.80 163.41 133.98 165.02 C 134.50 167.49 132.63 172.85 129.55 169.96 C 131.27 169.23 132.12 167.83 132.29 166.06 C 129.51 167.09 126.82 170.62 123.74 168.75 C 122.85 165.74 124.39 163.09 126.74 161.34 C 125.70 160.34 124.72 159.28 123.71 158.25 L 124.09 160.24 L 122.28 159.93 C 122.54 158.91 122.81 157.88 123.08 156.86 Z" />
<path fill="#ffffff" d=" M 122.04 173.01 C 122.40 171.51 122.67 169.93 123.69 168.70 C 123.77 169.85 123.92 172.14 124.00 173.29 C 126.26 174.70 128.85 175.41 131.38 176.15 C 131.21 176.87 130.85 178.31 130.67 179.03 C 127.32 178.05 123.95 177.15 120.59 176.21 C 121.07 175.15 121.56 174.08 122.04 173.01 Z" />
<path fill="#ffffff" d=" M 205.00 173.25 C 215.59 173.25 226.17 173.25 236.76 173.24 C 236.75 188.83 236.75 204.41 236.76 220.00 C 226.17 220.00 215.58 220.00 205.00 220.00 C 205.00 204.41 205.00 188.83 205.00 173.25 Z" />
<path fill="#ffffff" d=" M 120.85 177.71 C 122.63 178.14 124.40 178.60 126.17 179.07 C 125.69 180.85 125.21 182.64 124.73 184.42 C 125.42 184.66 126.80 185.13 127.48 185.37 C 127.87 183.24 127.82 181.10 127.03 179.06 C 131.72 180.14 128.80 185.28 128.08 188.31 C 125.08 187.72 121.87 187.42 119.19 185.85 C 118.03 183.14 119.95 180.26 120.85 177.71 Z" />
<path fill="#ffffff" d=" M 142.44 178.62 C 142.79 178.33 143.48 177.73 143.83 177.43 C 144.82 181.71 145.40 186.08 146.31 190.38 C 143.70 190.38 141.09 190.38 138.48 190.39 C 139.90 186.50 140.83 182.44 142.44 178.62 Z" />
<path fill="#ffffff" d=" M 151.92 178.18 C 152.32 178.53 153.11 179.24 153.51 179.60 C 155.18 183.52 156.36 187.63 157.76 191.66 C 155.77 191.64 153.78 191.64 151.80 191.64 C 151.85 187.15 151.72 182.66 151.92 178.18 Z" />
<path fill="#ee3e30" d=" M 121.15 180.93 C 121.83 181.07 123.20 181.36 123.88 181.51 C 123.62 182.38 123.37 183.25 123.11 184.12 C 122.46 183.96 121.15 183.64 120.50 183.48 C 120.71 182.63 120.93 181.78 121.15 180.93 Z" />
<path fill="#ffffff" d=" M 117.90 186.94 C 120.25 187.59 122.60 188.23 124.95 188.88 C 125.65 190.01 126.35 191.14 127.05 192.28 C 126.52 194.20 125.99 196.13 125.47 198.06 C 122.17 197.16 118.87 196.27 115.57 195.36 C 115.78 194.64 116.22 193.20 116.44 192.48 C 119.20 193.21 121.96 193.96 124.73 194.68 C 124.89 194.04 125.20 192.76 125.35 192.12 C 122.58 191.34 119.81 190.60 117.04 189.84 C 117.33 188.87 117.61 187.90 117.90 186.94 Z" />
<path fill="#ffffff" d=" M 137.93 197.16 C 140.37 196.33 142.78 195.45 145.20 194.59 C 145.18 198.71 145.19 202.83 145.19 206.96 C 142.10 208.15 139.03 209.37 135.93 210.53 C 136.67 206.08 137.28 201.62 137.93 197.16 Z" />
<path fill="#ffffff" d=" M 112.32 196.19 C 113.90 194.82 115.08 197.75 113.67 198.64 C 112.08 199.98 110.91 197.08 112.32 196.19 Z" />
<path fill="#ffffff" d=" M 152.35 196.34 C 154.46 196.35 156.57 196.36 158.68 196.38 C 159.86 201.02 161.09 205.64 162.35 210.25 C 159.03 209.60 155.69 209.07 152.36 208.48 C 152.35 204.43 152.36 200.38 152.35 196.34 Z" />
<path fill="#ffffff" d=" M 115.27 196.41 C 118.59 197.27 121.90 198.15 125.20 199.10 C 125.01 199.82 124.63 201.27 124.44 201.99 C 121.16 201.13 117.89 200.22 114.62 199.33 C 114.78 198.60 115.11 197.14 115.27 196.41 Z" />
<path fill="#ffffff" d=" M 111.91 208.87 C 112.93 206.28 112.81 202.75 115.03 200.93 C 118.14 201.24 121.08 202.36 124.09 203.15 C 123.92 203.86 123.57 205.29 123.39 206.00 C 120.60 205.29 117.81 204.56 115.02 203.86 C 114.83 204.49 114.46 205.76 114.27 206.39 C 117.03 207.13 119.80 207.86 122.57 208.58 C 122.39 209.32 122.02 210.80 121.84 211.55 C 118.52 210.67 115.22 209.76 111.91 208.87 Z" />
<path fill="#ffffff" d=" M 108.88 209.26 C 112.89 210.56 117.33 210.91 120.97 213.12 C 121.09 215.92 119.97 218.55 118.52 220.87 C 114.57 219.85 110.63 218.74 106.67 217.74 C 106.83 217.00 107.15 215.50 107.31 214.75 C 111.05 215.69 114.77 216.73 118.50 217.74 C 118.65 217.09 118.95 215.80 119.10 215.16 C 115.42 214.16 111.74 213.15 108.06 212.16 C 108.27 211.44 108.68 209.99 108.88 209.26 Z" />
<path fill="#ffffff" d=" M 133.48 221.09 C 137.18 220.02 140.89 218.98 144.57 217.82 C 145.12 223.15 144.96 228.52 145.24 233.86 C 140.26 234.51 135.28 235.29 130.33 236.17 C 131.34 231.14 132.46 226.13 133.48 221.09 Z" />
<path fill="#ffffff" d=" M 155.69 219.20 C 157.80 219.37 159.91 219.57 162.03 219.77 C 163.89 226.29 165.78 232.81 167.61 239.34 C 164.10 237.98 160.56 236.69 157.08 235.24 C 156.88 229.87 156.20 224.54 155.69 219.20 Z" />
<path fill="#ffffff" d=" M 108.05 224.93 C 109.87 224.88 111.65 225.35 113.43 225.70 C 112.99 227.60 112.53 229.51 112.08 231.42 C 112.76 231.57 114.13 231.87 114.81 232.01 C 115.24 229.97 115.34 227.91 114.07 226.11 C 119.17 226.46 116.59 232.34 114.93 234.97 C 111.82 234.58 108.47 234.04 105.92 232.09 C 106.15 229.61 106.69 227.06 108.05 224.93 Z" />
<path fill="#ee3e30" d=" M 107.96 229.86 C 107.53 227.93 109.70 228.14 110.92 227.66 C 110.82 228.54 110.62 230.31 110.52 231.19 C 109.65 230.77 108.80 230.33 107.96 229.86 Z" />
<path fill="#ffffff" d=" M 101.03 236.50 C 102.43 234.77 104.72 234.53 106.69 233.84 C 106.63 234.31 106.50 235.25 106.43 235.72 C 108.39 236.20 110.34 236.71 112.30 237.22 C 113.18 236.75 114.06 236.29 114.95 235.83 C 114.66 237.33 114.33 238.82 113.97 240.31 C 111.47 239.98 108.99 239.49 106.56 238.83 C 105.89 239.13 105.23 239.44 104.57 239.75 C 103.48 238.56 102.27 237.50 101.03 236.50 Z" />
<path fill="#ffffff" d=" M 103.50 241.48 C 106.76 240.47 110.12 242.70 113.35 243.24 C 112.61 246.05 111.80 248.88 110.20 251.34 C 108.40 250.97 106.40 251.02 104.87 249.85 C 104.62 247.70 104.94 245.54 105.04 243.39 C 104.39 244.33 103.75 245.27 103.11 246.22 C 103.47 246.83 104.20 248.04 104.56 248.64 C 103.92 248.64 102.65 248.64 102.01 248.63 C 101.23 246.20 102.30 243.58 103.50 241.48 Z" />
<path fill="#231f20" d=" M 250.73 242.00 C 252.38 242.00 254.03 242.00 255.69 242.00 C 255.68 243.66 255.68 245.32 255.68 246.99 C 256.36 246.99 257.71 247.01 258.39 247.01 C 258.39 247.76 258.39 249.25 258.39 249.99 C 257.71 250.00 256.36 250.00 255.68 250.01 C 255.68 254.00 255.68 258.00 255.68 261.99 C 256.36 262.00 257.71 262.01 258.39 262.01 C 258.39 262.77 258.38 264.30 258.38 265.06 C 255.83 264.88 252.37 265.74 250.91 262.96 C 250.51 258.67 250.82 254.34 250.75 250.03 C 250.11 250.02 248.82 249.98 248.17 249.97 C 248.17 249.23 248.17 247.76 248.17 247.03 C 248.82 247.02 250.11 246.98 250.75 246.97 C 250.74 245.31 250.74 243.65 250.73 242.00 Z" />
<path fill="#231f20" d=" M 362.00 242.00 C 363.71 242.00 365.42 242.00 367.14 242.00 C 367.14 249.66 367.14 257.33 367.14 265.00 C 363.08 264.94 359.01 265.14 354.96 264.92 C 352.95 264.92 351.74 262.87 351.90 261.04 C 351.89 257.09 351.54 253.07 352.17 249.16 C 354.23 245.94 358.79 247.28 362.00 246.98 C 362.00 245.32 362.00 243.66 362.00 242.00 Z" />
<path fill="#231f20" d=" M 369.32 241.98 C 371.01 241.99 372.71 242.01 374.41 242.03 C 374.40 242.77 374.39 244.25 374.38 244.99 C 372.69 244.99 371.00 245.00 369.32 245.01 C 369.32 244.25 369.32 242.74 369.32 241.98 Z" />
<path fill="#231f20" d=" M 418.86 242.00 C 420.57 242.00 422.28 242.00 424.00 242.00 C 424.00 249.67 424.00 257.33 424.00 265.00 C 422.28 265.00 420.57 265.00 418.86 265.00 C 418.86 257.33 418.86 249.67 418.86 242.00 Z" />
<path fill="#231f20" d=" M 444.00 242.00 C 445.71 242.00 447.42 242.00 449.14 242.00 C 449.13 243.66 449.13 245.31 449.13 246.98 C 452.30 247.26 456.79 245.97 458.82 249.15 C 459.53 253.72 459.00 258.40 459.09 263.02 C 458.37 263.67 457.67 264.34 456.96 265.00 C 452.64 265.00 448.32 265.00 444.00 265.00 C 444.00 257.33 444.00 249.67 444.00 242.00 Z" />
<path fill="#ee3e30" d=" M 105.80 247.07 C 106.72 244.74 108.77 244.80 110.88 245.47 C 110.65 246.38 110.42 247.30 110.19 248.22 C 108.72 247.84 107.26 247.46 105.80 247.07 Z" />
<path fill="#ffffff" d=" M 126.99 249.82 C 133.45 248.72 139.93 247.79 146.38 246.66 C 146.40 253.09 146.37 259.52 146.40 265.95 C 139.06 266.18 131.71 266.35 124.38 266.74 C 125.16 261.09 126.16 255.47 126.99 249.82 Z" />
<path fill="#ffffff" d=" M 157.48 246.02 C 161.65 247.60 165.78 249.29 169.89 251.00 C 170.94 256.94 172.12 262.85 173.35 268.75 C 168.91 268.34 164.52 267.59 160.10 267.01 C 159.44 259.99 158.30 253.02 157.48 246.02 Z" />
<path fill="#231f20" d=" M 188.32 247.01 C 191.63 247.00 194.94 247.00 198.25 247.00 C 199.10 247.97 199.96 248.95 200.82 249.92 C 200.82 254.94 200.81 259.97 200.82 264.99 C 196.62 264.87 192.38 265.33 188.22 264.74 C 183.69 262.31 183.47 252.98 189.44 252.27 C 191.73 251.43 195.43 253.26 196.36 250.22 C 194.09 250.03 191.83 249.98 189.56 249.96 C 189.56 250.47 189.56 251.49 189.56 252.00 C 188.57 252.00 186.60 252.00 185.61 252.01 C 186.52 250.34 187.42 248.68 188.32 247.01 Z" />
<path fill="#231f20" d=" M 203.00 247.00 C 210.05 247.04 217.10 246.92 224.14 247.03 C 225.91 246.96 228.14 247.99 228.27 249.96 C 228.58 254.96 228.30 259.99 228.38 265.00 C 226.65 265.00 224.91 265.00 223.18 265.00 C 223.18 260.00 223.18 255.00 223.18 250.00 C 221.54 250.00 219.90 250.00 218.26 250.00 C 218.26 255.00 218.26 260.00 218.26 265.00 C 216.56 265.00 214.87 265.00 213.18 265.00 C 213.19 260.00 213.18 255.00 213.18 250.00 C 211.50 250.00 209.82 250.00 208.14 250.00 C 208.14 255.00 208.14 260.00 208.14 265.00 C 206.42 265.00 204.71 265.00 203.00 265.00 C 203.00 259.00 203.00 253.00 203.00 247.00 Z" />
<path fill="#231f20" d=" M 233.32 247.01 C 236.63 247.00 239.94 247.00 243.24 247.00 C 244.10 247.97 244.96 248.95 245.82 249.92 C 245.81 254.95 245.81 259.97 245.82 264.99 C 241.61 264.86 237.35 265.34 233.18 264.73 C 229.68 262.73 229.06 257.38 231.05 254.10 C 233.64 251.21 237.98 252.29 241.41 251.72 C 240.39 248.82 236.86 250.37 234.56 249.96 C 234.56 250.47 234.56 251.49 234.56 252.00 C 233.57 252.00 231.60 252.00 230.61 252.01 C 231.52 250.34 232.43 248.68 233.32 247.01 Z" />
<path fill="#231f20" d=" M 260.32 249.89 C 260.45 246.49 264.65 247.02 267.01 246.96 C 269.69 247.26 273.69 245.94 275.09 249.07 C 275.62 251.67 275.34 254.35 275.40 257.00 C 272.01 257.00 268.64 257.00 265.26 257.00 C 265.26 258.66 265.26 260.33 265.26 262.00 C 267.75 262.00 270.24 262.00 272.73 262.00 C 272.74 261.49 272.74 260.47 272.74 259.96 C 273.47 260.00 274.93 260.09 275.66 260.13 C 275.27 261.68 275.43 263.86 273.58 264.51 C 270.87 265.53 267.79 264.85 264.94 265.01 C 263.32 264.99 260.75 264.92 260.46 262.86 C 259.92 258.58 260.12 254.20 260.32 249.89 Z" />
<path fill="#231f20" d=" M 278.44 247.00 C 280.10 247.00 281.77 246.99 283.44 247.00 C 283.44 252.00 283.45 257.00 283.44 262.00 C 285.14 261.99 286.85 262.00 288.56 262.00 C 288.55 257.00 288.56 252.00 288.56 247.00 C 290.22 247.00 291.89 247.00 293.56 247.00 C 293.56 253.00 293.56 259.00 293.56 264.99 C 289.56 264.95 285.56 265.13 281.56 264.93 C 280.08 264.63 278.43 263.53 278.51 261.84 C 278.30 256.90 278.51 251.95 278.44 247.00 Z" />
<path fill="#231f20" d=" M 296.44 247.00 C 298.14 247.00 299.84 247.00 301.56 247.01 C 301.45 247.58 301.25 248.72 301.15 249.29 C 303.25 247.17 306.13 246.76 308.99 246.89 C 308.99 247.62 309.00 249.08 309.00 249.81 C 306.29 249.87 303.40 250.51 301.72 252.85 C 301.08 256.86 301.59 260.97 301.45 265.01 C 299.77 265.00 298.10 264.99 296.43 264.98 C 296.45 258.98 296.44 252.99 296.44 247.00 Z" />
<path fill="#231f20" d=" M 319.44 247.00 C 321.14 247.00 322.84 247.00 324.56 247.01 C 324.45 247.59 324.25 248.74 324.15 249.31 C 326.22 247.16 329.13 246.77 331.99 246.89 C 331.99 247.62 332.00 249.08 332.00 249.81 C 329.28 249.87 326.40 250.51 324.71 252.85 C 324.09 256.86 324.58 260.96 324.45 265.00 C 322.77 264.99 321.10 265.00 319.44 265.00 C 319.44 259.00 319.44 253.00 319.44 247.00 Z" />
<path fill="#231f20" d=" M 337.32 247.01 C 340.63 247.00 343.94 247.00 347.25 247.00 C 348.10 247.98 348.96 248.95 349.82 249.94 C 349.81 254.95 349.81 259.97 349.82 264.99 C 345.62 264.87 341.37 265.33 337.20 264.74 C 332.68 262.27 332.49 252.96 338.47 252.26 C 340.78 251.46 344.37 253.20 345.42 250.25 C 343.13 250.03 340.85 249.98 338.56 249.96 C 338.56 250.47 338.56 251.49 338.56 252.00 C 337.57 252.00 335.60 252.00 334.61 252.01 C 335.51 250.34 336.42 248.68 337.32 247.01 Z" />
<path fill="#231f20" d=" M 369.32 247.00 C 371.00 247.00 372.69 247.00 374.39 247.00 C 374.38 253.00 374.38 259.00 374.38 265.00 C 372.69 264.99 371.00 265.00 369.32 265.00 C 369.32 259.00 369.32 253.00 369.32 247.00 Z" />
<path fill="#231f20" d=" M 377.79 246.96 C 381.50 247.09 385.22 246.81 388.92 247.13 C 390.48 247.72 391.50 249.33 391.34 251.01 C 391.37 254.97 391.66 258.98 391.11 262.92 C 388.34 266.50 383.00 264.64 379.11 264.87 C 375.33 264.27 376.28 259.78 376.16 257.04 C 376.46 253.68 375.19 249.68 377.79 246.96 Z" />
<path fill="#231f20" d=" M 402.62 249.37 C 404.46 245.41 409.73 247.52 413.14 246.95 C 414.53 248.29 415.18 250.03 415.44 251.92 C 414.69 251.94 413.18 251.99 412.43 252.02 C 412.43 251.51 412.44 250.50 412.44 250.00 C 410.75 249.99 409.06 250.00 407.38 250.00 C 407.38 254.00 407.38 258.00 407.38 262.00 C 409.07 262.00 410.75 262.00 412.45 262.00 C 412.44 261.50 412.42 260.51 412.41 260.01 C 413.17 260.02 414.69 260.05 415.45 260.06 C 414.90 261.72 414.93 264.17 412.86 264.72 C 409.52 265.35 406.03 265.11 402.76 264.26 C 402.19 259.33 402.03 254.29 402.62 249.37 Z" />
<path fill="#231f20" d=" M 426.44 247.00 C 428.10 247.00 429.77 246.99 431.44 247.00 C 431.44 252.00 431.44 257.00 431.44 262.00 C 433.14 262.00 434.85 262.00 436.56 262.00 C 436.55 257.00 436.55 252.00 436.56 247.00 C 438.22 247.00 439.89 247.00 441.56 247.00 C 441.56 253.00 441.56 259.00 441.56 264.99 C 437.57 264.95 433.58 265.14 429.59 264.93 C 428.12 264.66 426.47 263.58 426.51 261.92 C 426.29 256.95 426.51 251.97 426.44 247.00 Z" />
<path fill="#ffffff" d=" M 265.26 250.00 C 266.95 250.00 268.63 250.00 270.33 250.01 C 270.32 251.33 270.32 252.67 270.31 254.00 C 268.62 254.00 266.94 254.00 265.26 254.00 C 265.26 252.66 265.26 251.33 265.26 250.00 Z" />
<path fill="#ffffff" d=" M 356.82 250.00 C 358.54 250.00 360.27 250.00 362.00 250.00 C 362.00 254.00 362.00 258.00 362.00 262.00 C 360.27 262.00 358.54 262.00 356.82 262.00 C 356.81 258.00 356.81 254.00 356.82 250.00 Z" />
<path fill="#ffffff" d=" M 381.26 250.00 C 382.94 250.00 384.62 250.00 386.32 250.00 C 386.32 254.00 386.32 258.00 386.32 262.00 C 384.62 262.00 382.94 262.00 381.26 262.00 C 381.26 258.00 381.26 254.00 381.26 250.00 Z" />
<path fill="#ffffff" d=" M 449.14 250.00 C 450.82 250.00 452.49 250.00 454.18 250.00 C 454.18 254.00 454.18 258.00 454.18 262.00 C 452.49 262.00 450.81 262.00 449.14 262.00 C 449.14 258.00 449.14 254.00 449.14 250.00 Z" />
<path fill="#ffffff" d=" M 97.26 251.47 C 98.58 251.22 99.89 250.95 101.21 250.66 C 103.48 253.36 107.58 254.29 110.78 252.75 C 110.12 254.09 109.97 255.80 108.70 256.75 C 105.76 256.73 102.82 254.59 99.95 256.00 C 98.96 255.11 97.96 254.22 96.95 253.36 C 97.03 252.89 97.18 251.95 97.26 251.47 Z" />
<path fill="#ffffff" d=" M 190.68 255.00 C 192.37 255.00 194.05 255.00 195.74 255.00 C 195.74 257.33 195.74 259.66 195.74 262.00 C 194.05 262.00 192.37 262.00 190.68 262.00 C 190.68 259.66 190.68 257.33 190.68 255.00 Z" />
<path fill="#ffffff" d=" M 235.68 255.00 C 237.36 255.00 239.05 255.00 240.74 255.00 C 240.74 257.33 240.74 259.66 240.74 262.00 C 239.05 262.00 237.36 262.00 235.68 262.00 C 235.68 259.66 235.68 257.33 235.68 255.00 Z" />
<path fill="#ffffff" d=" M 339.68 255.00 C 341.36 255.00 343.05 255.00 344.74 255.00 C 344.74 257.33 344.74 259.66 344.74 262.00 C 343.05 262.00 341.36 262.00 339.68 262.00 C 339.68 259.66 339.68 257.33 339.68 255.00 Z" />
<path fill="#ffffff" d=" M 97.10 264.13 C 92.57 263.55 95.32 254.84 99.49 257.19 C 98.08 258.22 96.96 259.56 96.16 261.12 C 99.94 262.43 102.35 257.42 105.92 258.85 C 110.50 259.33 107.54 268.32 103.45 265.70 C 104.99 264.80 106.11 263.49 106.73 261.83 C 103.06 260.80 100.60 265.27 97.10 264.13 Z" />
<path fill="#ffffff" d=" M 95.18 270.49 C 98.44 270.75 102.53 270.68 104.76 273.44 C 104.61 275.85 103.67 278.12 102.88 280.38 C 99.69 280.08 96.60 279.23 93.58 278.19 C 93.98 275.59 94.50 273.02 95.18 270.49 Z" />
<path fill="#ee3e30" d=" M 96.21 273.11 C 98.45 273.73 100.69 274.35 102.92 274.99 C 102.75 275.63 102.41 276.92 102.24 277.56 C 99.99 276.94 97.75 276.32 95.50 275.71 C 95.73 274.84 95.97 273.97 96.21 273.11 Z" />
<path fill="#ffffff" d=" M 122.15 279.35 C 130.64 278.65 139.16 278.68 147.64 277.91 C 147.65 285.40 147.63 292.90 147.65 300.40 C 137.69 300.36 127.73 300.39 117.77 300.39 C 119.29 293.39 120.72 286.37 122.15 279.35 Z" />
<path fill="#ffffff" d=" M 89.50 281.13 C 89.55 280.41 89.66 279.70 89.75 278.99 C 93.98 280.28 98.46 280.50 102.65 281.98 C 102.47 282.72 102.10 284.20 101.92 284.94 C 98.82 284.11 95.68 283.38 92.72 282.12 C 91.84 281.26 90.63 281.26 89.50 281.13 Z" />
<path fill="#ffffff" d=" M 160.77 279.17 C 165.07 279.77 169.35 280.51 173.64 281.20 C 175.62 287.36 177.74 293.49 179.74 299.65 C 174.70 300.21 169.62 300.24 164.57 300.67 C 163.26 293.51 162.18 286.31 160.77 279.17 Z" />
<path fill="#ffffff" d=" M 92.10 283.85 C 95.37 283.94 98.44 285.20 101.57 286.02 C 101.40 286.75 101.06 288.21 100.89 288.94 C 98.08 288.16 95.26 287.41 92.44 286.67 C 92.27 287.56 92.11 288.44 91.94 289.33 C 94.66 290.03 97.37 290.74 100.09 291.44 C 99.83 292.44 99.58 293.44 99.32 294.45 C 95.31 293.21 91.12 292.49 87.21 290.93 C 87.08 290.27 86.83 288.97 86.70 288.31 C 87.83 288.42 88.96 288.53 90.09 288.66 C 90.68 287.02 91.17 285.33 92.10 283.85 Z" />
<path fill="#ffffff" d=" M 86.14 292.91 C 90.03 293.22 93.93 294.01 97.51 295.58 C 99.57 297.84 97.15 300.98 96.77 303.53 C 92.59 303.39 88.60 302.03 84.65 300.79 C 84.82 298.11 85.39 295.48 86.14 292.91 Z" />
<path fill="#ee3e30" d=" M 87.50 295.98 C 90.61 296.39 93.57 297.46 96.58 298.28 C 96.40 298.92 96.05 300.20 95.87 300.84 C 92.59 299.94 89.30 299.05 86.03 298.11 C 86.40 297.58 87.13 296.51 87.50 295.98 Z" />
<path fill="#ffffff" d=" M 85.08 307.90 C 87.06 308.12 89.03 308.41 90.99 308.76 C 90.48 310.66 89.98 312.56 89.48 314.47 C 90.17 314.64 91.54 314.97 92.23 315.14 C 92.45 313.45 93.11 311.67 92.12 310.06 C 92.15 309.82 92.21 309.35 92.23 309.11 C 92.81 309.34 93.97 309.81 94.55 310.05 C 94.26 312.63 94.15 315.39 92.77 317.68 C 89.54 318.42 86.31 316.47 83.29 315.48 C 83.77 312.92 84.38 310.39 85.08 307.90 Z" />
<path fill="#ee3e30" d=" M 85.90 310.78 C 86.60 310.93 87.99 311.21 88.68 311.36 C 88.39 312.23 88.09 313.11 87.80 313.99 C 87.19 313.81 85.98 313.44 85.38 313.26 C 85.55 312.43 85.72 311.60 85.90 310.78 Z" />
<path fill="#ffffff" d=" M 80.93 322.18 C 81.56 320.58 82.04 318.90 83.02 317.47 C 86.16 317.27 89.22 318.54 92.16 319.52 C 92.16 320.26 92.14 321.72 92.13 322.46 C 89.22 321.73 86.32 320.94 83.42 320.14 C 83.26 320.80 82.96 322.11 82.80 322.77 C 85.55 323.50 88.30 324.23 91.04 324.99 C 90.77 325.96 90.50 326.94 90.23 327.93 C 86.06 326.75 81.87 325.59 77.66 324.54 C 77.81 323.81 78.11 322.34 78.26 321.61 C 78.93 321.75 80.26 322.04 80.93 322.18 Z" />
<path fill="#ffffff" d=" M 75.01 334.00 C 76.15 331.03 75.86 327.02 78.81 325.15 C 78.63 326.32 78.44 327.50 78.24 328.69 C 81.76 329.68 85.38 330.39 88.79 331.72 C 88.86 332.42 88.99 333.80 89.06 334.50 C 85.07 333.75 81.18 332.60 77.26 331.58 C 77.14 332.22 76.91 333.50 76.79 334.14 C 76.35 334.10 75.45 334.03 75.01 334.00 Z" />
</svg>
